<svg width="58" height="74" viewBox="0 0 58 74" fill="none" xmlns="http://www.w3.org/2000/svg">
<path d="M17.162 34.8103C16.2859 33.8465 14.9718 33.9342 14.3585 35.0731L0.165526 63.5468C-0.360142 64.6858 0.428317 66 1.65488 66H21.455C22.0683 66 22.6816 65.6495 22.9445 65.0362C27.2374 56.1875 24.609 42.7829 17.162 34.8103Z" fill="url(#paint0_linear_2143_27642)"/>
<path d="M27.5915 8.87729C19.6189 21.4933 20.1446 35.4236 25.4012 45.937C30.6579 56.4503 34.6881 64.423 34.9509 65.0363C35.2137 65.6496 35.827 66 36.4402 66H56.2405C57.467 66 58.3431 64.6858 57.7298 63.5469C57.7298 63.5469 31.096 10.2791 30.3951 8.9649C29.8695 7.73834 28.38 7.65073 27.5915 8.87729Z" fill="#0C66E4"/>
<defs>
<linearGradient id="paint0_linear_2143_27642" x1="24.9613" y1="39.1636" x2="9.93415" y2="65.1279" gradientUnits="userSpaceOnUse">
<stop stop-color="#0052CC"/>
<stop offset="0.9228" stop-color="#2684FF"/>
</linearGradient>
</defs>
</svg>
