<svg width="58" height="54" viewBox="0 0 58 54" fill="none" xmlns="http://www.w3.org/2000/svg">
<g clip-path="url(#clip0_2143_27624)">
<path fill-rule="evenodd" clip-rule="evenodd" d="M45.9371 37.4092L29.5442 27.9188L45.9145 18.4677L53.7712 23.1218L54.1223 32.6836L45.9371 37.4092Z" fill="#29B5E8"/>
<path fill-rule="evenodd" clip-rule="evenodd" d="M28.477 6.96388L28.4543 25.9054L12.084 16.4542L12.1864 7.32324L20.2918 2.2383L28.477 6.96388Z" fill="#29B5E8"/>
<path fill-rule="evenodd" clip-rule="evenodd" d="M11.084 38.3496L27.4996 28.8984V47.8007L19.5405 52.2776L11.084 47.8007V38.3496Z" fill="#29B5E8"/>
<path fill-rule="evenodd" clip-rule="evenodd" d="M29.5094 46.9009L29.532 27.9593L45.9023 37.4105L45.8 46.5415L37.6945 51.6264L29.5094 46.9009Z" fill="#11567F"/>
<path fill-rule="evenodd" clip-rule="evenodd" d="M12.0629 16.5205L28.4558 26.0109L12.0855 35.462L4.22883 30.8079L3.87775 21.2461L12.0629 16.5205Z" fill="#11567F"/>
<path fill-rule="evenodd" clip-rule="evenodd" d="M44.9336 16.5918L28.518 26.043L28.518 7.14067L36.4771 2.66381L44.9336 7.14067L44.9336 16.5918Z" fill="#11567F"/>
</g>
<defs>
<clipPath id="clip0_2143_27624">
<rect width="58" height="53.8651" fill="white"/>
</clipPath>
</defs>
</svg>
