<svg width="42" height="42" viewBox="0 0 42 42" fill="none" xmlns="http://www.w3.org/2000/svg">
<rect width="42" height="42" rx="8" fill="white"/>
<path d="M8 29.155V13H10.9169V29.155H8ZM10.1091 20.7634L17.7603 13H21.6868L13.7215 20.7634H10.1091ZM18.1193 29.155L10.0642 20.7634H13.7215L22.1356 29.155H18.1193Z" fill="#FE7130"/>
<path d="M23.076 29.155V13H30.3233C31.505 13 32.5147 13.2019 33.3524 13.6058C34.205 14.0097 34.8557 14.5781 35.3044 15.3111C35.7681 16.044 36 16.9116 36 17.9138C36 18.901 35.7681 19.7686 35.3044 20.5165C34.8407 21.2645 34.19 21.8478 33.3524 22.2667C32.5147 22.6705 31.505 22.8725 30.3233 22.8725H25.3422V20.5839H30.1887C31.1161 20.5839 31.8266 20.3445 32.3203 19.8659C32.8288 19.3872 33.0831 18.7365 33.0831 17.9138C33.0831 17.1061 32.8288 16.4703 32.3203 16.0066C31.8266 15.5429 31.1161 15.3111 30.1887 15.3111H25.9929V29.155H23.076Z" fill="#FE7130"/>
</svg>
