<svg width="42" height="42" viewBox="0 0 42 42" fill="none" xmlns="http://www.w3.org/2000/svg">
<rect width="42" height="42" rx="8" fill="white"/>
<path d="M7.75 29.155V29.405H8H10.9169H11.1669V29.155V22.2731L17.9389 29.3281L18.0127 29.405H18.1193H22.1356H22.7403L22.3121 28.9779L14.0776 20.7654L21.8613 13.179L22.3015 12.75H21.6868H17.7603H17.6557L17.5822 12.8245L11.1669 19.3339V13V12.75H10.9169H8H7.75V13V29.155ZM22.826 29.155V29.405H23.076H25.9929H26.2429V29.155V23.1225H30.3233C31.5328 23.1225 32.5815 22.9159 33.461 22.4919L33.461 22.4919L33.4642 22.4903C34.3405 22.0521 35.0272 21.4381 35.5169 20.6483C36.0081 19.8561 36.25 18.9418 36.25 17.9138C36.25 16.8725 36.0088 15.9575 35.5167 15.179C35.0403 14.4015 34.3513 13.8025 33.4601 13.3802C32.5809 12.9565 31.5324 12.75 30.3233 12.75H23.076H22.826V13V29.155ZM30.1887 20.3339H26.2429V15.5611H30.1887C31.0763 15.5611 31.7167 15.7826 32.1491 16.1888L32.1491 16.1888L32.1518 16.1914C32.5993 16.5994 32.8331 17.163 32.8331 17.9138C32.8331 18.6809 32.5984 19.2608 32.1489 19.6838L32.1489 19.6838L32.1462 19.6864C31.7136 20.1059 31.0744 20.3339 30.1887 20.3339Z" fill="#C53E00" stroke="#C53E00" stroke-width="0.5"/>
</svg>
