<svg width="34" height="34" viewBox="0 0 34 34" fill="none" xmlns="http://www.w3.org/2000/svg">
<path d="M2.42188 25.0002V7.72021H5.54187V25.0002H2.42188ZM4.67788 16.0242L12.8619 7.72021H17.0619L8.54187 16.0242H4.67788ZM13.2459 25.0002L4.62988 16.0242H8.54187L17.5419 25.0002H13.2459Z" fill="#191D26"/>
<path d="M18.5478 25.0002V7.72021H26.2998C27.5638 7.72021 28.6438 7.93621 29.5398 8.36822C30.4518 8.80022 31.1478 9.40822 31.6278 10.1922C32.1238 10.9762 32.3718 11.9042 32.3718 12.9762C32.3718 14.0322 32.1238 14.9602 31.6278 15.7602C31.1318 16.5602 30.4358 17.1842 29.5398 17.6322C28.6438 18.0642 27.5638 18.2802 26.2998 18.2802H20.9718V15.8322H26.1558C27.1478 15.8322 27.9078 15.5762 28.4358 15.0642C28.9798 14.5522 29.2518 13.8562 29.2518 12.9762C29.2518 12.1122 28.9798 11.4322 28.4358 10.9362C27.9078 10.4402 27.1478 10.1922 26.1558 10.1922H21.6678V25.0002H18.5478Z" fill="#191D26"/>
</svg>
